<svg viewBox="0 0 22 19" fill="none" xmlns="http://www.w3.org/2000/svg">
<path d="M18.8906 2.03906C16.625 0.125 13.1484 0.398438 11 2.625C8.8125 0.398438 5.33594 0.125 3.07031 2.03906C0.140625 4.5 0.570312 8.52344 2.67969 10.6719L9.51562 17.6641C9.90625 18.0547 10.4141 18.2891 11 18.2891C11.5469 18.2891 12.0547 18.0547 12.4453 17.6641L19.3203 10.6719C21.3906 8.52344 21.8203 4.5 18.8906 2.03906ZM17.9531 9.34375L11.1172 16.3359C11.0391 16.4141 10.9609 16.4141 10.8438 16.3359L4.00781 9.34375C2.5625 7.89844 2.28906 5.16406 4.28125 3.48438C5.80469 2.19531 8.14844 2.39062 9.63281 3.875L11 5.28125L12.3672 3.875C13.8125 2.39062 16.1562 2.19531 17.6797 3.44531C19.6719 5.16406 19.3984 7.89844 17.9531 9.34375Z" fill="white"/>
</svg>
